/* XPM */
static const char *coin[] = {
/* columns rows colors chars-per-pixel */
"37 48 198 2 ",
"   c #010101",
".  c #0A0304",
"X  c #040A04",
"o  c #0C0A03",
"O  c #05020A",
"+  c #0A020B",
"@  c #030909",
"#  c #0F0D0B",
"$  c #130702",
"%  c #1C0701",
"&  c #140C02",
"*  c #190C02",
"=  c #10020C",
"-  c #140A0B",
";  c #0C1205",
":  c #131204",
">  c #1D1404",
",  c #1B1907",
"<  c #0A0211",
"1  c #141414",
"2  c #181818",
"3  c #200C00",
"4  c #241202",
"5  c #2A1402",
"6  c #221904",
"7  c #2C1B05",
"8  c #241509",
"9  c #331601",
"0  c #322400",
"q  c #31230A",
"w  c #3B2C0A",
"e  c #3E2D0B",
"r  c #2E2A11",
"t  c #332511",
"y  c #362C11",
"u  c #422500",
"i  c #462D03",
"p  c #512900",
"a  c #413A0C",
"s  c #4D3C0B",
"d  c #573A03",
"f  c #443513",
"g  c #4B3914",
"h  c #503C12",
"j  c #554105",
"k  c #5C490B",
"l  c #575304",
"z  c #5E5508",
"x  c #575E0B",
"c  c #595E0C",
"v  c #474912",
"b  c #564B1A",
"n  c #5A5811",
"m  c #614906",
"M  c #655705",
"N  c #66581B",
"B  c #725D1C",
"V  c #72630D",
"C  c #7D7509",
"Z  c #7F721A",
"A  c #4F5625",
"S  c #595B26",
"D  c #5E5D3F",
"F  c #5F6531",
"G  c #64682A",
"H  c #7D6F25",
"J  c #5C5C5C",
"K  c #605E41",
"L  c #787878",
"P  c #846703",
"I  c #836B00",
"U  c #8D7102",
"Y  c #8C750C",
"T  c #947903",
"R  c #9A7D03",
"E  c #897B1B",
"W  c #8F7A28",
"Q  c #7A8735",
"!  c #948607",
"~  c #9D8203",
"^  c #8A8511",
"/  c #9B9818",
"(  c #A18A03",
")  c #A68A06",
"_  c #B08B03",
"`  c #B39502",
"'  c #B69E00",
"]  c #B99E16",
"[  c #91A11E",
"{  c #B3A904",
"}  c #BCA900",
"|  c #828226",
" . c #978F2A",
".. c #8A9020",
"X. c #999C21",
"o. c #998534",
"O. c #939E30",
"+. c #969B3B",
"@. c #A28D26",
"#. c #A2972E",
"$. c #9EA721",
"%. c #9CA731",
"&. c #A5A926",
"*. c #ADB52E",
"=. c #AAAF31",
"-. c #C8AC00",
";. c #D2AD00",
":. c #C9B908",
">. c #D3B501",
",. c #D4BB03",
"<. c #DBBC01",
"1. c #D9B805",
"2. c #C7AD1C",
"3. c #C8B417",
"4. c #DBBF11",
"5. c #E5BE00",
"6. c #EBBD00",
"7. c #E0B50A",
"8. c #C6B32A",
"9. c #C4AC36",
"0. c #C3B23A",
"q. c #D1BD36",
"w. c #CDC006",
"e. c #C3C409",
"r. c #D5C900",
"t. c #C7CD1C",
"y. c #D5C414",
"u. c #ECC600",
"i. c #E4CB01",
"p. c #EDCD02",
"a. c #E1C40F",
"s. c #E7C808",
"d. c #F1C700",
"f. c #F8C400",
"g. c #F2CC00",
"h. c #E4D201",
"j. c #EBD202",
"k. c #EADC01",
"l. c #E0D40B",
"z. c #E8D308",
"x. c #F1D100",
"c. c #F5DF00",
"v. c #F8DF00",
"b. c #EBCA11",
"n. c #DBE317",
"m. c #EDE300",
"M. c #E7E50B",
"N. c #E4ED0E",
"B. c #F4E200",
"V. c #F5EC00",
"C. c #F8EB00",
"Z. c #EEF301",
"A. c #EEF908",
"S. c #F5F501",
"D. c #F8F500",
"F. c #F3F801",
"G. c #F3F30C",
"H. c #F5F80C",
"J. c #E5EB16",
"K. c #E1ED1B",
"L. c #F2E211",
"P. c #ECFB18",
"I. c #F1FD15",
"U. c #F1F81E",
"Y. c #D1C128",
"T. c #D1DE36",
"R. c #E1E724",
"E. c #EEF923",
"W. c #EEF62C",
"Q. c #EEF82B",
"!. c #F3F421",
"~. c #F3F32A",
"^. c #F2FA2A",
"/. c #F2E63C",
"(. c #EDFC3B",
"). c #F2FA33",
"_. c #F1F73D",
"`. c #9B9F57",
"'. c #9AA257",
"]. c #B4BD4C",
"[. c #9DA36F",
"{. c #C6D04E",
"}. c #DAE355",
"|. c #F3E542",
" X c #F4FA49",
".X c #E2ED57",
"XX c #EFFB51",
"oX c #F5FC5B",
"OX c #F5FD6F",
"+X c #F7FF71",
"@X c #F6FF7B",
"#X c #F8FF7C",
"$X c #F7FF81",
"%X c #F8FF83",
"&X c #F8FF8A",
"*X c #EBF296",
"=X c #FAFF9B",
"-X c #CACACA",
/* pixels */
"-XJ X                                                                     ",
"L L 1                                                                     ",
"# 2 X                                                                     ",
"                                                                          ",
"                                                                          ",
"                                                                          ",
"          X X                     X X O       X X X X X X                 ",
"    X X X                         X X X       X X X X X X                 ",
"                                  X X X       X X X X X O                 ",
"    O O O X . + . X . . . . . . . . . . . . . .   X X $ = + X +           ",
"          . . q k l z c c c x x x x x x c S K D S c z k g - o + O         ",
"    O   X . $ M y.r.M.J.K.K.N.N.N.N.N.N.K..X*X*X.XJ.l.y.#.4 . +           ",
"    O   X + o n 8.w.m.C.C.C.C.C.C.C.C.C.V.~.oXoX!.V.h.:. .8 + @           ",
"        X O . 6 e m -.<.u.g.g.g.g.g.g.g.p.j.z.z.p.p.R i q $ . X X         ",
"        . o * * % u ' >.5.d.d.d.d.d.d.d.u.u.u.u.u.i.I 3 * * * o           ",
"X O O + * N Y U I T >.6.x.B.B.B.B.B.B.B.c.L.|./.L.B.{ P I Y H t . O O     ",
"X O . . 6 @.b.5.>.<.u.f.B.S.D.D.D.D.D.D.S.^.#X+XU.S.h.>.<.s.Y.g . X X     ",
"X O O X 4 _ u.;.( _ 6.f.B.S.S.S.S.S.S.S.F.).%X@XE.S.:.~ ` 6.1.s . X X     ",
"X + @ X 4 ) p.~ 9 p ;.f.v.S.S.S.S.S.S.S.S.).&X$XW.G.^ 4 d 7.4.s . X X     ",
"X X X X > o.q.E 5 p ;.f.v.S.S.S.S.S.S.S.F.).&X$XW.G.^ 5 j 9.0.f . X X     ",
"X X O + # q f N @.` 6.f.v.S.S.S.S.S.S.S.S.).&X$XQ.S.w./ E h f 8 . X X     ",
"    + + O o $ b 8.,.u.f.B.S.F.S.S.S.F.S.S._.#X+XU.S.h.:. .8 = + O X       ",
"    O O O o o y B U <.f.B.S.S.S.S.F.F.!. XoXXX).H.G.{ V b - O X   X       ",
"    O O O . o o $ i 3.p.B.D.S.S.S.F.Z. X#XoXP.F.F.~.| * + @ X @   X       ",
"      O O     @ o q o.] i.V.V.S.S.F.Z.).oX).F.Z.t.].F = < X X +           ",
"    O O O O O O O $ 3 9 ) h.k.D.F.F.F.H.G.S.H.n.l , : . + + + +           ",
"    O O O O O O + + . * W y.h.V.S.S.S.S.S.Z.R.{.e O + + + O O .           ",
"                . + @ o y d U p.k.V.S.F.F.e.M v , X   O   X X X           ",
"                    O . . . m a.j.C.S.F.E.=.6 . X X                       ",
"                    O X . . e C ! <.j.{ ..G : O O O                       ",
"                .           $ * 0 ` >.M * $ X X . .                       ",
"                X X X       , e j } r.C a r o X   .                       ",
"                X X . . .   b 2.,.m.V.n.T.+.> O X O                       ",
"              X X . * 3 * 3 M i.j.C.S.A.P.*.0 > : : & + + O   O           ",
"              X + 7 E ( ( ( } B.C.V.Z.^.oX}.&.&.$.%.S - < O X + O X X     ",
"              + = w 3.z.p.p.k.G.H.A.E.OX=X@X(.I.I.(.Q : X O O + O X X     ",
"              O . 7 Z ! R R ! X.X.[ O.`.[.'.O./ X.+.A o X O O O O         ",
"              X X . & & & & * : ; o o & # o : ; ; ; # X O +               ",
"              X X + + O X O O O O + + O O O O O X X @ O @ +               ",
"                . + . . . + O O . . O X X O + + + . X X X O               ",
"                                                                          ",
"                                                                          ",
"                                                                          ",
"                            X X X             X X X                       ",
"                            X X X             X X X                       ",
"                X           X X O       . O   X X X                       ",
"              . X   + + X X   O O O O O + + O                             ",
"                + O O O . . + + + + + O X X X   . .                       "
};
