/* XPM */
static const char *coin[] = {
/* columns rows colors chars-per-pixel */
"110 76 136 2 ",
"   c black",
".  c #050000",
"X  c #040303",
"o  c #0A0000",
"O  c #0F0000",
"+  c #0A0A00",
"@  c #0C0C00",
"#  c #130000",
"$  c #190000",
"%  c #1F0000",
"&  c #100F05",
"*  c #100E0C",
"=  c #101000",
"-  c #13100E",
";  c #161411",
":  c #200000",
">  c #240000",
",  c #340000",
"<  c #3B0000",
"1  c #241411",
"2  c #241F1B",
"3  c #24201B",
"4  c #470000",
"5  c #480000",
"6  c #4F0000",
"7  c #510000",
"8  c #540000",
"9  c #5B0000",
"0  c #5D0000",
"q  c #620000",
"w  c #640202",
"e  c #720000",
"r  c #760000",
"t  c #472620",
"y  c #463F35",
"u  c #473F36",
"i  c #555500",
"p  c #707000",
"a  c #675A4C",
"s  c #726455",
"d  c #786656",
"f  c #786959",
"g  c #7F6F5E",
"h  c #800000",
"j  c #870000",
"k  c #880000",
"l  c #8C0000",
"z  c #9B0000",
"x  c #9C0000",
"c  c #831D19",
"v  c #A20000",
"b  c #A40000",
"n  c #A90000",
"m  c #B00000",
"M  c #B70000",
"N  c #BA0000",
"B  c #C20000",
"V  c #C80000",
"C  c #CD0000",
"Z  c #D30000",
"A  c #D40000",
"S  c #DA0000",
"D  c #DC0000",
"F  c #E00000",
"G  c #E50000",
"H  c #E70000",
"J  c #F10000",
"K  c #F90000",
"L  c #FC0000",
"P  c #FF0403",
"I  c #FF1F1A",
"U  c #FF201B",
"Y  c #FF332B",
"T  c #837361",
"R  c #CE5F50",
"E  c #FF6051",
"W  c #E57F6C",
"Q  c #9C9C00",
"!  c #C2C200",
"~  c #CDCD00",
"^  c #D0D000",
"/  c yellow",
"(  c #FFFE05",
")  c #FFFC12",
"_  c #FFFB19",
"`  c #FF836E",
"'  c #F98671",
"]  c #FF8772",
"[  c #FF8974",
"{  c #FF8C76",
"}  c #FF8F78",
"|  c #CDC244",
" . c #D3C749",
".. c #FFF34B",
"X. c #FFF256",
"o. c #FFF158",
"O. c #FFEE65",
"+. c #FFEE6A",
"@. c #FFF06C",
"#. c #FFEC74",
"$. c #FFEC76",
"%. c #FFEB7A",
"&. c #FFEB7B",
"*. c #FFEB7D",
"=. c #B09B82",
"-. c #B09A85",
";. c #B09D85",
":. c #FF9D84",
">. c #CDB498",
",. c #CDB499",
"<. c #D7BD9F",
"1. c #FFA087",
"2. c #FFBFA1",
"3. c #FFE984",
"4. c #FFE88A",
"5. c #FFE88C",
"6. c #FFE59E",
"7. c #E5C9AA",
"8. c #E5CDAD",
"9. c #E8CBAC",
"0. c #E9CDAD",
"q. c #FFD5B4",
"w. c #FFD9B7",
"e. c #F9DBB8",
"r. c #FCDDBB",
"t. c #F9DEBC",
"y. c #FFE5A1",
"u. c #FFE3AB",
"i. c #FFE1B6",
"p. c #FFE3BF",
"a. c #FFDFC0",
"s. c #FFDFC4",
"d. c #FFE3C0",
"f. c #FFE3C3",
"g. c #FFE4C1",
"h. c #FFE8C4",
/* pixels */
"                                                                                                                                                                                                                            ",
"                                                                                                                                                                                                                            ",
"                                                                                                                                                                                                                            ",
"                                                                                                                                                                                                                            ",
"                                                                                            . . . . . . . . . . . . . . . . .                                                                                               ",
"                                                                                          # z M M M M M M M M M M M M M M M M 7                                                                                             ",
"                                                                                          $ S L L L L L L L L L L L L L L L L e                                                                                             ",
"                                                                                          $ S L L L L L L L L L L L L L L L L e                                                                                             ",
"                                                                                          $ S L L L L L L L L L L L L L L L L e                                                                                             ",
"                                                                                    8 v v n J L L L L L L L L L L L L L L L L V x v v 8                                                                                     ",
"                                                                                    j L L L L L L L L L L L L L L L L L L L L L L L L k                                                                                     ",
"                                                                                    j L L L L L L L L L L L L L L L L L L L L L L L L k                                                                                     ",
"                                                                                    k L L L L L L L L L L L L L L L L L L L L L L L L k                                                                                     ",
"                                                                            8 l k k V L L L L L L L L L L L L L L L L L L L L L L L L V k k l 8                                                                             ",
"                                                                            x L L L L L L L L L L L L L L L L L L L L L L L L L L L L L L L L x                                                                             ",
"                                                                            x L L L L L L L L L L L L L L L L L L L L L L L L L L L L L L L L x                                                                             ",
"                                                                            x L L L L L L L L L L L L L L L L L L L L L L L L L L L L L L L L x                                                                             ",
"                                                                    6 r e e V L L L L L L L L L L L L L L L L L L L L L L L L L L L L L L L L V e e r 7                                                                     ",
"                                                                  . m L L L L L L L L L L L L L L L L L L L L L L L L L L L L L L L L L L L L L L L L m .                                                                   ",
"                                                                  . m L L L L L L L L L L L L L L L L L L L L L L L L L L L L L L L L L L L L L L L L m .                                                                   ",
"                                                                  . m L L L L L L L L L L L L L L L L L L L L L L L L L L L L L L L L L L L L L L L L m .                                                                   ",
"                                                          . 4 0 0 0 l b b b v v b v A L L L L L L L L L L L L L L L L L L L L L L L L A v v v v v v b l 0 0 0 4 .                                                           ",
"                                                          o B L L K 6               k L L L L L L L L L L L L L L L L L L L L L L L L k               7 K L L B o                                                           ",
"                                                          o B L L K 6               k L L L L L L L L L L L L L L L L L L L L L L L L k               7 K L L B o                                                           ",
"                                                          o B L L K 7               k L L L L L L L L L L L L L L L L L L L L L L L L k               7 L L L B o                                                           ",
"                                                  . < 5 4 6 A L L L h 4 5 5 t y y y c N N M S L L L L L L L L L L L L L L L L S M N N c y y y t 5 5 4 h L L L A 6 4 5 < .                                                   ",
"                                                  # C L K K L L L L K K K K ' t.e.r.d   .   r L L L L L L L L L L L L L L L L r   .   d r.e.t.' K K K K L L L L K K L C #                                                   ",
"                                                  # Z L L L L L L L L L L L [ g.p.p.f       e L L L L L L L L L L L L L L L L e       f d.p.g.[ L L L L L L L L L L L Z #                                                   ",
"                                                  # Z L L L L L L L L L L L [ g.p.p.f       e L L L L L L L L L L L L L L L L e       f p.p.g.[ L L L L L L L L L L L Z #                                                   ",
"                                                  # Z L L L L L L L L L L L [ g.p.p.f       9 C C C C C V C V V V V V V C C C 0       f p.p.g.[ L L L L L L L L L L L Z #                                                   ",
"                                                  # Z L L L L L L L L L L L [ g.p.p.f       . O O O O O O O O O O O O O O O O .       f p.p.g.[ L L L L L L L L L L L Z #                                                   ",
"                                                  # Z L L L L L L L L L L L [ g.p.p.f                                                 f p.p.g.[ L L L L L L L L L L L Z #                                                   ",
"                                                  # A L L L L L L L L L L L [ g.p.p.f                                                 f p.p.g.[ L L L L L L L L L L L Z #                                                   ",
"                                          . : > > , S L L L L L L L L L L L [ g.p.p.f       * 3 2 3 1 > > > > > > > > 1 3 2 3 *       f p.p.g.[ L L L L L L L L L L L S , > > : .                                           ",
"                                          % V G G G L L L L L L L L L L L L [ g.r.p.f       a 9.7.8.W G G G G G G G G W 8.7.0.a       f p.p.g.[ L L L L L L L L L L L L G G G V $                                           ",
"                                          % F L L L L L L L L L L L L L L L [ g.r.p.f       s g.p.g.} L L L L L L L L } g.p.g.s       f p.p.g.[ L L L L L L L L L L L L L L L F %                                           ",
"                                          % F L L L L L L L L L L L L L L L [ g.p.p.f       s p.p.g.{ L L L L L L L L { g.p.p.s       f p.p.g.[ L L L L L L L L L L L L L L L F %                                           ",
"                                          % F L L L L L L L L L L L L L L L [ g.p.p.T - ; - g p.p.g.{ L L L L L L L L { g.p.p.g - ; - T p.p.g.[ L L L L L L L L L L L L L L L F %                                           ",
"                                          : F L L L L L L L L L L L L L L L [ g.p.p.0.<.<.<.0.p.p.g.{ L L L L L L L L { g.p.p.0.<.<.<.0.p.p.g.[ L L L L L L L L L L L L L L L F %                                           ",
"                                          : F L L L L L L L L L L L L L L L [ g.p.p.p.p.p.p.p.p.p.g.{ L L L L L L L L { g.p.p.p.p.p.p.p.p.p.g.[ L L L L L L L L L L L L L L L F %                                           ",
"                                          % F L L L L L L L L L L L L L L L [ g.p.p.p.p.p.p.p.p.p.g.} L L L L L L L L } g.p.p.p.p.p.p.p.p.p.g.[ L L L L L L L L L L L L L L L F %                                           ",
"                                          % F L L L L L L L L L L L L L L L ` w.q.q.q.q.q.q.q.q.q.w.] L L L L L L L L ] w.q.q.q.q.q.q.q.q.q.w.` L L L L L L L L L L L L L L L F %                                           ",
"                                          % F L L L L L L L L L L L L L L L I Y Y Y Y Y Y Y Y Y Y Y U L L L L L L L L U Y Y Y Y Y Y Y Y Y Y Y I L L L L L L L L L L L L L L L F %                                           ",
"                                          % F L L L L L L L L L L L L L L L L L L L L L L L L L L L L L L L L L L L L L L L L L L L L L L L L L L L L L L L L L L L L L L L L F %                                           ",
"                                          % F L L L L L L L L L L L L L L L L L L L L L L L L L L L L L L L L L L L L L L L L L L L L L L L L L L L L L L L L L L L L L L L L F %                                           ",
"                                          % D L K L L L L L L L L L L L L L L P P P P P P P P P P P P P P P P P P P P P P P P P P P P P P P P L L L L L L L L L L L L L L K L D %                                           ",
"                                          o 4 6 6 9 F L L L L L L L L L L L E 1.:.:.:.:.:.:.:.:.:.:.:.:.:.:.:.:.:.:.:.:.:.:.:.:.:.:.:.:.:.:.1.E L L L L L L L L L L L F 9 6 6 4 o                                           ",
"                                                  # A L L L L L L L L L L L { h.d.g.g.g.g.g.g.g.g.g.g.g.g.g.g.g.g.g.g.g.g.g.g.g.g.g.g.g.g.g.h.{ L L L L L L L L L L L A #                                                   ",
"                                                  # Z L L L L L L L L L L L [ d.p.p.p.p.r.r.p.p.p.p.p.p.p.p.p.r.r.r.p.p.p.p.p.p.p.p.r.r.r.r.g.[ L L L L L L L L L L L Z #                                                   ",
"                                                  # Z L L L L L L L L L L L [ d.p.p.p.p.r.p.p.p.p.p.p.p.p.p.p.p.r.r.p.p.p.p.p.p.p.p.r.r.r.r.g.[ L L L L L L L L L L L Z #                                                   ",
"                                                  . 7 q q q q q q w R { [ [ 2.p.p.p.r.p.r.r.p.p.r.r.p.p.p.p.p.p.r.r.r.p.r.r.r.r.p.p.p.p.r.p.p.2.[ [ { R w q q q q q q 7 .                                                   ",
"                                                                  . ;.h.g.g.p.r.p.p.r.r.r.r.p.p.r.r.p.p.p.p.p.p.r.r.p.p.r.r.r.r.p.p.p.p.r.p.p.p.g.g.h.;..                                                                   ",
"                                                                  . =.g.p.r.r.r.p.r.r.r.p.p.p.p.r.r.p.p.p.p.r.r.r.r.r.r.r.p.p.p.r.r.r.p.p.p.p.p.p.p.d.=..                                                                   ",
"                                                                  . =.g.p.p.r.r.p.r.r.r.r.r.p.p.r.r.p.p.p.p.r.r.p.r.r.r.r.p.p.p.r.r.p.p.p.p.p.p.p.p.d.=..                                                                   ",
"                                                                  . =.g.p.p.p.p.p.p.r.r.r.r.r.r.r.p.p.p.p.r.r.r.p.p.r.r.p.p.p.p.r.r.p.p.p.p.r.r.p.p.g.=..                                                                   ",
"                                                                  . =.g.p.p.p.p.p.p.r.r.r.r.r.r.r.r.p.p.p.r.r.r.p.p.r.p.p.p.p.p.r.r.r.p.p.p.r.r.p.p.g.=..                                                                   ",
"                                                                  . =.g.d.p.p.p.r.r.r.r.r.p.p.p.p.p.p.p.r.r.r.r.p.p.r.r.r.r.p.p.r.p.p.p.p.p.r.r.p.p.g.=..                                                                   ",
"                                                                  . -.f.d.d.p.p.r.r.r.r.p.p.p.p.p.p.p.p.r.r.r.p.p.p.r.r.r.r.p.p.r.r.p.p.p.p.r.r.d.d.d.-..                                                                   ",
"                                                          . i p p p  .@.+.+.6.p.r.r.p.p.p.p.p.p.p.p.p.p.r.r.p.p.p.p.p.r.p.p.p.p.r.r.r.r.p.p.p.6.+.+.@. .p p p i .                                                           ",
"                                                          + ! / / / / / / / #.d.p.p.p.p.p.p.p.p.r.r.p.p.p.r.p.p.p.p.p.r.p.p.p.p.r.r.r.p.p.p.a.#./ / / / / / / ! +                                                           ",
"                                                          + ! / / / / / / / #.a.p.p.p.p.r.r.p.p.r.r.r.r.p.p.p.p.p.p.p.p.p.r.r.r.p.p.p.p.p.p.a.#./ / / / / / / ! +                                                           ",
"                                                          + ! / / / / / / / #.a.d.d.p.p.r.r.r.p.r.r.r.r.p.p.p.p.p.p.p.p.p.p.r.r.p.p.p.a.a.a.s.#./ / / / / / / ! +                                                           ",
"                                                          + ! / / / / / / / ..*.&.&.6.r.r.r.p.p.p.p.p.p.p.p.r.r.r.r.p.p.p.p.r.r.p.p.i.3.&.&.*.../ / / / / / / ! +                                                           ",
"                                                          + ! / / / / / / / / / / / O.a.r.r.p.p.p.p.p.p.r.r.r.r.r.r.p.p.p.r.r.r.p.p.u._ / / / / / / / / / / / ! +                                                           ",
"                                                          + ! / / / / / / / / / / / O.d.p.p.p.r.p.p.p.r.r.r.r.r.r.r.r.r.r.r.p.p.p.r.u._ / / / / / / / / / / / ! +                                                           ",
"                                                          + ! / / / / / / / / / / / O.a.a.a.r.r.p.p.p.p.r.r.r.r.r.r.r.r.p.r.p.p.r.a.u._ / / / / / / / / / / / ! +                                                           ",
"                                                          + ! / / / / / / / / / / / ..5.4.4.y.p.p.p.p.p.p.p.p.p.p.p.p.p.p.p.p.y.4.4.&.) / / / / / / / / / / / ! +                                                           ",
"                                                          + ! / / / / / / / / / / / / ( ( / o.p.p.p.p.r.p.p.p.p.p.p.p.p.p.p.p.o./ ( ( / / / / / / / / / / / / ! +                                                           ",
"                                                          + ! / / / / / / / / / / / / / / / X.p.p.p.p.p.p.p.p.p.p.p.p.p.p.p.p.X./ / / / / / / / / / / / / / / ! +                                                           ",
"                                                          + ! / / / / / / / / / / / / / / / X.d.p.p.p.p.d.d.p.p.p.p.p.p.p.p.d.X./ / / / / / / / / / / / / / / ! +                                                           ",
"                                                          + Q ^ ~ ~ ~ ~ ~ ~ ~ ~ ~ ~ ~ ~ ~ ~ | ,.,.,.,.,.,.,.,.,.,.,.,.,.,.,.,.| ~ ~ ~ ~ ~ ~ ~ ~ ~ ~ ~ ~ ~ ~ ^ Q +                                                           ",
"                                                            @ = = = = = = = = = & = = = = = & * * * * * * * * * * * * * * * * & = = = = = = = = = = = = = = = @                                                             ",
"                                                                                                                                                                                                                            ",
"                                                                                                                                                                                                                            ",
"                                                                                                                                                                                                                            ",
"                                                                                                                                                                                                                            "
};
