/* XPM */
static const char *exit[] = {
/* columns rows colors chars-per-pixel */
"38 48 150 2 ",
"   c #030202",
".  c #090204",
"X  c #040805",
"o  c #080A03",
"O  c #050309",
"+  c #0A020A",
"@  c #140602",
"#  c #190601",
"$  c #160904",
"%  c #1B0A03",
"&  c #160909",
"*  c #1E0D08",
"=  c #1F100B",
"-  c #250F04",
";  c #280E03",
":  c #231105",
">  c #3E1902",
",  c #341B0C",
"<  c #391C0E",
"1  c #39200B",
"2  c #3E2614",
"3  c #372B17",
"4  c #401D05",
"5  c #512E05",
"6  c #583107",
"7  c #5A3C0D",
"8  c #442B14",
"9  c #5B3D11",
"0  c #563D1A",
"q  c #6C3F09",
"w  c #553C24",
"e  c #5E4112",
"r  c #6D4106",
"t  c #67450C",
"y  c #6A430D",
"u  c #7F550F",
"i  c #644415",
"p  c #6A4413",
"a  c #65441B",
"s  c #69441A",
"d  c #654918",
"f  c #7F5A1D",
"g  c #664623",
"h  c #7A5625",
"j  c #7B5A25",
"k  c #795828",
"l  c #7B6532",
"z  c #766832",
"x  c #736938",
"c  c #616C51",
"v  c #7F7B54",
"b  c #7F785B",
"n  c #5B6E62",
"m  c #874E03",
"M  c #8D4B00",
"N  c #954C00",
"B  c #994B00",
"V  c #8D5203",
"C  c #895009",
"Z  c #945203",
"A  c #9D5400",
"S  c #9C5900",
"D  c #9D5E08",
"F  c #835414",
"G  c #8A5510",
"H  c #865A1A",
"J  c #8A5C1F",
"K  c #A15400",
"L  c #A35C01",
"P  c #A85A00",
"I  c #9E6304",
"U  c #9E640A",
"Y  c #9D6A0E",
"T  c #9F6614",
"R  c #9C6B18",
"E  c #A56201",
"W  c #A66302",
"Q  c #A76400",
"!  c #A96200",
"~  c #A96500",
"^  c #AA6500",
"/  c #A76A00",
"(  c #AE6C00",
")  c #AF6D00",
"_  c #A36209",
"`  c #A0650C",
"'  c #A2690B",
"]  c #B26B00",
"[  c #B26E00",
"{  c #A77100",
"}  c #AE7001",
"|  c #AA710F",
" . c #B47200",
".. c #B67400",
"X. c #B87300",
"o. c #B87600",
"O. c #B87700",
"+. c #BB7600",
"@. c #B67C00",
"#. c #BA7900",
"$. c #BB7B00",
"%. c #BD7900",
"&. c #BC7D00",
"*. c #B5790E",
"=. c #A16611",
"-. c #A16814",
";. c #AD7411",
":. c #B37B14",
">. c #B37C18",
",. c #B87E1A",
"<. c #835A25",
"1. c #8E5E21",
"2. c #825B2A",
"3. c #8D6C29",
"4. c #9A6722",
"5. c #887538",
"6. c #A17F2C",
"7. c #C07502",
"8. c #C07B00",
"9. c #887740",
"0. c #807C54",
"q. c #718976",
"w. c #BA8119",
"e. c #9F8139",
"r. c #A88A38",
"t. c #A48D42",
"y. c #A19953",
"u. c #8E8E64",
"i. c #8E8F72",
"p. c #80987A",
"a. c #93A16A",
"s. c #97AC7B",
"d. c #6A8A84",
"f. c #779082",
"g. c #7B9585",
"h. c #70938B",
"j. c #7B9F96",
"k. c #79A29C",
"l. c #7DAF9C",
"z. c #7C9CA0",
"x. c #79A0A0",
"c. c #7BADA6",
"v. c #7FAEAB",
"b. c #829383",
"n. c #829C8E",
"m. c #819891",
"M. c #82B6A7",
"N. c #8BC0B7",
"B. c #A5D0A4",
"V. c #8CD3C7",
/* pixels */
"                  O O .         . . . . . . O O O X X   O   . . . X         ",
"                            O O O O O O O X X X X X X X       . .           ",
"                  X O O . . @ @ @ @ @ @ @ @ @ @ @ . O .     X X . . . .     ",
"                  O + + * w a y r r r r r y i a w : + + . . X O O O . . X   ",
"                . $ : - 4 1.` Q Q Q Q Q Q E _ =.J 4 - = & . O O O O . .     ",
"      X   . O X @ 8 h F V L P B N N N N N B B L I V u h 8 @ O X O O         ",
"      X O + . $ , r ` L L P L A B B A A B B A K L L E =.y , & . + O         ",
"        O . @ 1 <.D Q A N N L %.] ! X. .! ] o.L N N A ! I 2.< @ +           ",
"      O O $ 8 y _ L K P P A ! 8.] ~ o.o.~ ] &.! A P P K L U q 8 $           ",
"        . : k ` ! K N ] %.~ ] 8.) Q o.o.~ ] &.) ~ o.] B K ! U h : O         ",
"        + ; F L A A L  .$.~ ] 8.) Q o.o.Q  .&.) Q $.o.S A A L F : O         ",
"      . * > V L N A ~ o.$.~ ] &.) Q o.o.Q ] &.) ~ $.o.Q A N L V > % + . O   ",
"X . . @ w J E L N A Q o.$.~ ) &.) Q o.$.Q ] &.) ~ $.o.! A N L L H 0 @ . O o ",
". . . # a -.L L K L ~ o.$.~ ) &.) Q o.$.Q ] &.) ~ $.o.! L A P L Y d & X O o ",
"    . # i U N A %.] ~ o.$.~ ) &.) Q o.o.Q ] &.) ~ $.o.! ] o.K B _ p $ X O o ",
"    . # i U N A $. .~ o.$.~ ) &.) Q o.$.Q ] &.) ~ $.o.~  .$.A B _ p $ o X . ",
"    . # i _ B A $. .~ o.$.~ ) &.) Q o.o.Q ] &.) ~ $.o.!  .$.A N _ p # . O . ",
"    . # t _ B A %. .~ o.$.~ ) &.) Q o.o.Q } &.] ~ $.X.!  .$.A B E t # . O o ",
"    . # t E B A $.] ~ o.$.~ ) &.) Q o.o.Q } &.] ~ @.o.!  .$.A B _ p & X . . ",
"    . # t E B S $.] ~ o.$.~ ) &.) Q o.o.Q ] %.] / @.o.~  .$.A N E p & X . . ",
"    . # t E B S $.] Q o.$.~ ) &.) Q o.o.Q ] &.) ~ %.o.~  .%.A N E y $ X . . ",
"    . # t E B S $.] Q o.$.~ ) &.) Q o.o.Q } $.) ~ 7...I } 8.K Z I t $ X X . ",
"    . # t E B S $. .~ o.$.~ ) &.) Q o.o.Q } $.) ~ *.r.y.t.>.A N _ p # X X . ",
"    . # t E B S $. .~ o.$.~ ) &.) Q o.o.Q ] $.) E 6.a.B.s.e.Z N _ p # X O o ",
"    . # t L B A $.] Q o.$.~ ) &.) Q o.$.Q [ $.{ R u.l.V.M.i.J V _ p & . O o ",
"    . # t L B A $.] Q o.$.~ ) &.) Q o.$.Q ] &./ 3.b.c.N.v.m.l V E p & . O o ",
"    . # t _ B S $.] ~ o.$.~ ) &.) Q o.$.Q ) $.L <.b.f.c q.n.z Z _ s @ . O o ",
"    . # t _ B S &. .~ o.$.~ ) &.) Q o.$.Q } $.S j g.h.n d.j.x V _ p & . O o ",
"    . # t E B S $.] ~ o.$.~ ) &.) Q o.o.Q ] $.S f p.k.z.x.n.l N E t @ . O o ",
"    . # t E B S $.] ~ o.$.~ ) &.) Q o.$.Q ] $.S C 5.0.b v 9.G N _ p & . O o ",
"    . # t E B S $.] ~ o.$.~ ) &.) Q o.o.Q ] %.L M M m m m V M B E p $ . O o ",
"    . # t E B S $.] ~ o.$.~ ) &.) Q o.o.Q ] &.~ L ) ~ L Q ) A B E p $ . O o ",
"    . # t E B S $.] ~ o.$.~ ) &.) Q o.$.Q } $.) ~ %.o.~  .&.A N _ p $ . O o ",
"    . # t _ B S $.] ~ o.$.~ ) &.) Q o.o.Q } w.} / $.X.!  .$.A N U d $ . O o ",
"    . # t E B A $.] ~ o.$.~ ) &.) Q o.$.Q ] $.) ~ $.o.!  .$.A N _ p $ . O o ",
"    . # t E B A $.] ~ o.$.~ ) &.) Q o.o.Q ] &.) ~ $.o.!  .$.A B _ p $ . O o ",
"    . # t _ B S $.] ~ o.$.~ ) &.) Q o.o.Q ] &.) ~ $.o.~  .$.A B _ p & X O . ",
"    . # t _ B A $.] ~ o.$.~ ) &.) Q o.$.Q ] &.) ~ $.o.Q  .$.A B _ p & X O . ",
"    . # t _ B S $.] ~ o.$.~ ) &.) Q o.$.Q ] &.) ~ $.o.Q  .$.A B _ p & X O . ",
"    . # t E B S $.] ~ o.$.~ ) &.] ~ o.$.Q ] &.) ~ $.o.Q  .$.A B _ p & X O . ",
"    . # t E B S $.] ~ o.$.~ ) &.] ~ o.o.Q ] &.) ~ $.o.Q  .$.A B _ p @ O O . ",
"    O # t _ B A %.] Q o.$.~ ) &.] ~ o.o.Q ] &.) ~ $.o.Q  .$.A N _ p # . O   ",
"      # g 4.N S ,.;.' :.:.' | w.;.' :.:.' | :.| ' :.:.' ;.,.Z V T s # o O O ",
"      . 3 0 5 6 a e 7 i i 7 e d e 7 i i 7 9 d 7 7 i i 7 e d 6 5 9 2 @   O O ",
"      X o $ # @ @ @ @ @ $ @ @ @ @ @ @ @ @ @ & @ @ @ @ @ $ $ @ @ @ @ . X O O ",
"  . . X X   O + O O . . . . . O O O O O O O O O O O O O . O O O O O . X X O ",
"X . .     O O O     o o o o o                           . . o     O O .     ",
"X . . X X O O O   O . O . + . O O O O O O . . . . . . . + . O O O O O . o   "
};
