/* XPM */
static const char *exit[] = {
/* columns rows colors chars-per-pixel */
"101 95 38 1 ",
"  c #000000",
". c #000700",
"X c #000A00",
"o c #000F00",
"O c #001A00",
"+ c #002100",
"@ c #002600",
"# c #002900",
"$ c #002C00",
"% c #003000",
"& c #003400",
"* c #003E00",
"= c #004D00",
"- c #005100",
"; c #006300",
": c #006700",
"> c #006A00",
", c #007B00",
"< c #007C00",
"1 c #008300",
"2 c #008900",
"3 c #009400",
"4 c #009900",
"5 c #00A100",
"6 c #00A500",
"7 c #00B100",
"8 c #00B500",
"9 c #00B800",
"0 c #00D400",
"q c #00D800",
"w c #00DF00",
"e c #00E200",
"r c #00E700",
"t c #00EB00",
"y c #00EC00",
"u c #00F400",
"i c #00F800",
"p c green",
/* pixels */
"   .#$$$$$$$$$$$$$$$$$$$$$$$$$$$$$$$$$$$$$$$$$$$$$$$$$$$$$$$$$$$$$$$$$$$$$$$$$$$$$$$$$$$$$$$$$$+     ",
"   @0rrrrrrrrrrrrrrrrrrrrrrrrrrrrrrrrrrrrrrrrrrrrrrrrrrrrrrrrrrrrrrrrrrrrrrrrrrrrrrrrrrrrrrrrrt7X    ",
"  =3uppppppppppppppppppppppppppppppppppppppppppppppppppppppppppppppppppppppppppppppppppppppppppe1%   ",
"  5pppppppppppppppppppppppppppppppppppppppppppppppppppppppppppppppppppppppppppppppppppppppppppppp:   ",
"  5pppppppppppppppppppppppppppppppppppppppppppppppppppppppppppppppppppppppppppppppppppppppppppppp:   ",
"  5pppppppppppppppppppppppppppppppppppppppppppppppppppppppppppppppppppppppppppppppppppppppppppppp:   ",
"  5pppppppppppppppppppppppppppppppppppppppppppppppppppppppppppppppppppppppppppppppppppppppppppppp:   ",
"  5pppppppppppppppppppppppppppppppppppppppppppppppppppppppppppppppppppppppppppppppppppppppppppppp:   ",
"  5pppppppppppppppppppppppppppppppppppppppppppppppppppppppppppppppppppppppppppppppppppppppppppppp:   ",
"  5pppppppppppppppppppppppppppppppppppppppppppppppppppppppppppppppppppppppppppppppppppppppppppppp:   ",
"  5pppppppppppppppppppppppppppppppppppppppppppppppppppppppppppppppppppppppppppppppppppppppppppppp:   ",
"  5pppppppppppppppppppppppppppppppppppppppppppppppppppppppppppppppppppppppppppppppppppppppppppppp:   ",
"  5pppppppppppppppppppppppppppppppppppppppppppppppppppppppppppppppppppppppppppppppppppppppppppppp:   ",
"  5pppppppppppppppppppppppppppppppppppppppppppppppppppppppppppppppppppppppppppppppppppppppppppppp:   ",
"  5pppppppppppppppppppppppppppppppppppppppppppppppppppppppppppppppppppppppppppppppppppppppppppppp:   ",
"  5pppppppppppppppppppppppppppppppppppppppppppppppppppppppppppppppppppppppppppppppppppppppppppppp:   ",
"  5pppppppppppppppppppppppppppppppppppppppppppppppppppppppppppppppppppppppppppppppppppppppppppppp:   ",
"  5pppppppppppppppppppppppppppppppppppppppppppppppppppppppppppppppppppppppppppppppppppppppppppppp:   ",
"  5pppppppppppppppppppppppppppppppppppppppppppppppppppppppppppppppppppppppppppppppppppppppppppppp:   ",
"  5pppppppppppppppppppppppppppppppppppppppppppppppppppppppppppppppppppppppppppppppppppppppppppppp:   ",
"  5pppppppppppppppppppppppppppppppppppppppppppppppppppppppppppppppppppppppppppppppppppppppppppppp:   ",
"  5pppppppppppppppppppppppppppppppppppppppppppppppppppppppppppppppppppppppppppppppppppppppppppppp:   ",
"  5pppppppppppppppppppppppppppppppppppppppppppppppppppppppppppppppppppppppppppppppppppppppppppppp:   ",
"  5pppppppppppppppppppppppppppppppppppppppppppppppppppppppppppppppppppppppppppppppppppppppppppppp:   ",
"  5pppppppppppppppppppppppppppppppppppppppppppppppppppppppppppppppppppppppppppppppppppppppppppppp:   ",
"  5pppppppppppppppppppppppppppppppppppppppppppppppppppppppppppppppppppppppppppppppppppppppppppppp:   ",
"  5pppppppppppppppppppppppppppppppppppppppppppppppppppppppppppppppppppppppppppppppppppppppppppppp:   ",
"  5pppppppppppppppppppppppppppppppppppppppppppppppppppppppppppppppppppppppppppppppppppppppppppppp:   ",
"  5pppppppppppppppppppppppppppppppppppppppppppppppppppppppppppppppppppppppppppppppppppppppppppppp:   ",
"  5pppppppppppppppppppppppppppppppppppppppppppppppppppppppppppppppppppppppppppppppppppppppppppppp:   ",
"  5pppppppppppppppppppppppppppppppppppppppppppppppppppppppppppppppppppppppppppppppppppppppppppppp:   ",
"  5pppppppppppppppppppppppppppppppppppppppppppppppppppppppppppppppppppppppppppppppppppppppppppppp:   ",
"  5pppppppppppppppppppppppppppppppppppppppppppppppppppppppppppppppppppppppppppppppppppppppppppppp:   ",
"  5pppppppppppppppppppppppppppppppppppppppppppppppppppppppppppppppppppppppppppppppppppppppppppppp:   ",
"  5pppppppppppppppppppppppppppppppppppppppppppppppppppppppppppppppppppppppppppppppppppppppppppppp:   ",
"  5pppppppppppppppppppppppppppppppppppppppppppppppppppppppppppppppppppppppppppppppppppppppppppppp:   ",
"  5pppppppppppppppppppppppppppppppppppppppppppppppppppppppppppppppppppppppppppppppppppppppppppppp:   ",
"  5pppppppppppppppppppppppppppppppppppppppppppppppppppppppppppppppppppppppppppppppppppppppppppppp:   ",
"  5pppppppppppppppppppppppppppppppppppppppppppppppppppppppppppppppppppppppppppppppppppppppppppppp:   ",
"  5pppppppppppppppppppppppppppppppppppppppppppppppppppppppppppppppppppppppppppppppppppppppppppppp:   ",
"  -4uppppppppppppppppppppppppppppppppppppppppppppppppppppppppppppppppppppppppppppppppppppppppppe2&   ",
"   @qyypppppppppppppppppppppppppppppppppppppppppppppppppppppppppppppppppppppppppppppppppppppity8X    ",
"   .@#*wpppppppppppppppppppppppppppppppppppppppppppppppppppppppppppppppppppppppppppppppppppp9$#+     ",
"      o2555555555555555555555555555555555555555555555555555555555555555555555555555555555556>        ",
"                                                                                                     ",
"                                                                                                     ",
"                                                                                                     ",
"                                                                                                     ",
"        %,,,,,,,,,,,,,,,,,,,,,,,,,,,,,,,,,,,,,,,,,,,,,,,,,,,,,,,,,,,,,,,,,,,,,,,,,,,,,,,,<>o         ",
"        ;pppppppppppppppppppppppppppppppppppppppppppppppppppppppppppppppppppppppppppppppppqO         ",
"        ;pppppppppppppppppppppppppppppppppppppppppppppppppppppppppppppppppppppppppppppppppqO         ",
"        ;pppppppppppppppppppppppppppppppppppppppppppppppppppppppppppppppppppppppppppppppppqO         ",
"        ;pppppppppppppppppppppppppppppppppppppppppppppppppppppppppppppppppppppppppppppppppqO         ",
"        ;pppppppppppppppppppppppppppppppppppppppppppppppppppppppppppppppppppppppppppppppppqO         ",
"        ;pppppppppppppppppppppppppppppppppppppppppppppppppppppppppppppppppppppppppppppppppqO         ",
"        ;pppppppppppppppppppppppppppppppppppppppppppppppppppppppppppppppppppppppppppppppppqO         ",
"        ;pppppppppppppppppppppppppppppppppppppppppppppppppppppppppppppppppppppppppppppppppwO         ",
"        ;pppppppppppppppppppppppppppppppppppppppppppppppppppppppppppppppppppppppppppppppppqO         ",
"        ;pppppppppppppppppppppppppppppppppppppppppppppppppppppppppppppppppppppppppppppppppwO         ",
"        ;pppppppppppppppppppppppppppppppppppppppppppppppppppppppppppppppppppppppppppppppppwO         ",
"        ;pppppppppppppppppppppppppppppppppppppppppppppppppppppppppppppppppppppppppppppppppqO         ",
"        ;pppppppppppppppppppppppppppppppppppppppppppppppppppppppppppppppppppppppppppppppppqO         ",
"        ;pppppppppppppppppppppppppppppppppppppppppppppppppppppppppppppppppppppppppppppppppqO         ",
"        ;pppppppppppppppppppppppppppppppppppppppppppppppppppppppppppppppppppppppppppppppppqO         ",
"        ;pppppppppppppppppppppppppppppppppppppppppppppppppppppppppppppppppppppppppppppppppqO         ",
"        ;pppppppppppppppppppppppppppppppppppppppppppppppppppppppppppppppppppppppppppppppppqO         ",
"        ;pppppppppppppppppppppppppppppppppppppppppppppppppppppppppppppppppppppppppppppppppqO         ",
"        ;pppppppppppppppppppppppppppppppppppppppppppppppppppppppppppppppppppppppppppppppppqO         ",
"        ;pppppppppppppppppppppppppppppppppppppppppppppppppppppppppppppppppppppppppppppppppqO         ",
"        ;pppppppppppppppppppppppppppppppppppppppppppppppppppppppppppppppppppppppppppppppppqO         ",
"        ;pppppppppppppppppppppppppppppppppppppppppppppppppppppppppppppppppppppppppppppppppqO         ",
"        ;pppppppppppppppppppppppppppppppppppppppppppppppppppppppppppppppppppppppppppppppppqO         ",
"        ;pppppppppppppppppppppppppppppppppppppppppppppppppppppppppppppppppppppppppppppppppqO         ",
"        ;pppppppppppppppppppppppppppppppppppppppppppppppppppppppppppppppppppppppppppppppppqO         ",
"        ;pppppppppppppppppppppppppppppppppppppppppppppppppppppppppppppppppppppppppppppppppqO         ",
"        ;pppppppppppppppppppppppppppppppppppppppppppppppppppppppppppppppppppppppppppppppppqO         ",
"        ;pppppppppppppppppppppppppppppppppppppppppppppppppppppppppppppppppppppppppppppppppqO         ",
"        ;pppppppppppppppppppppppppppppppppppppppppppppppppppppppppppppppppppppppppppppppppqO         ",
"        ;pppppppppppppppppppppppppppppppppppppppppppppppppppppppppppppppppppppppppppppppppqO         ",
"        ;pppppppppppppppppppppppppppppppppppppppppppppppppppppppppppppppppppppppppppppppppqO         ",
"        ;pppppppppppppppppppppppppppppppppppppppppppppppppppppppppppppppppppppppppppppppppqO         ",
"        ;pppppppppppppppppppppppppppppppppppppppppppppppppppppppppppppppppppppppppppppppppqO         ",
"        ;pppppppppppppppppppppppppppppppppppppppppppppppppppppppppppppppppppppppppppppppppqO         ",
"        ;pppppppppppppppppppppppppppppppppppppppppppppppppppppppppppppppppppppppppppppppppqO         ",
"        ;pppppppppppppppppppppppppppppppppppppppppppppppppppppppppppppppppppppppppppppppppqO         ",
"        ;pppppppppppppppppppppppppppppppppppppppppppppppppppppppppppppppppppppppppppppppppqO         ",
"        ;pppppppppppppppppppppppppppppppppppppppppppppppppppppppppppppppppppppppppppppppppqO         ",
"        ;pppppppppppppppppppppppppppppppppppppppppppppppppppppppppppppppppppppppppppppppppqO         ",
"        ;pppppppppppppppppppppppppppppppppppppppppppppppppppppppppppppppppppppppppppppppppqO         ",
"        ;pppppppppppppppppppppppppppppppppppppppppppppppppppppppppppppppppppppppppppppppppqO         ",
"        ;pppppppppppppppppppppppppppppppppppppppppppppppppppppppppppppppppppppppppppppppppqO         ",
"        ;pppppppppppppppppppppppppppppppppppppppppppppppppppppppppppppppppppppppppppppppppqO         ",
"        ;pppppppppppppppppppppppppppppppppppppppppppppppppppppppppppppppppppppppppppppppppqO         ",
"        ;pppppppppppppppppppppppppppppppppppppppppppppppppppppppppppppppppppppppppppppppppqO         ",
"        ;pppppppppppppppppppppppppppppppppppppppppppppppppppppppppppppppppppppppppppppppppqO         "
};
