/* XPM */
static const char *player[] = {
/* columns rows colors chars-per-pixel */
"37 48 226 2 ",
"   c #010101",
".  c #0B0403",
"X  c #040904",
"o  c #0B0903",
"O  c #05030A",
"+  c #0A010C",
"@  c #040A0A",
"#  c #0A0A0A",
"$  c #120303",
"%  c #120A04",
"&  c #1D0E07",
"*  c #11010C",
"=  c #150D08",
"-  c #1A0E09",
";  c #1C120B",
":  c #18140B",
">  c #0A0113",
",  c #080616",
"<  c #0A021A",
"1  c #141313",
"2  c #1C1410",
"3  c #230E02",
"4  c #29170A",
"5  c #2F2410",
"6  c #382717",
"7  c #0E0428",
"8  c #11042C",
"9  c #130133",
"0  c #272727",
"q  c #322825",
"w  c #35322C",
"e  c #52390C",
"r  c #43361D",
"t  c #7A2300",
"y  c #453826",
"u  c #4B3D2A",
"i  c #594305",
"p  c #554114",
"a  c #6D4B1E",
"s  c #734C14",
"d  c #4A402F",
"f  c #5A4929",
"g  c #5E523A",
"h  c #644524",
"j  c #674C28",
"k  c #6B532E",
"l  c #755A2A",
"z  c #685A39",
"x  c #745B34",
"c  c #726626",
"v  c #786538",
"b  c #18034A",
"n  c #211E6E",
"m  c #261776",
"M  c #2A2E70",
"N  c #364A6A",
"B  c #525453",
"V  c #695C43",
"C  c #675D48",
"Z  c #715F41",
"A  c #42436D",
"S  c #775D7D",
"D  c #5B6C6D",
"F  c #646565",
"G  c #6B6A6B",
"H  c #74756A",
"J  c #74657D",
"K  c #797674",
"L  c #973C02",
"P  c #873812",
"I  c #984100",
"U  c #86451D",
"Y  c #934F1A",
"T  c #A35A01",
"R  c #AC741E",
"E  c #8D4225",
"W  c #8D552C",
"Q  c #9C692B",
"!  c #9B6439",
"~  c #B76927",
"^  c #A86332",
"/  c #AE763B",
"(  c #C4740F",
")  c #C87F37",
"_  c #825F59",
"`  c #836D45",
"'  c #8F7050",
"]  c #A77841",
"[  c #A67F58",
"{  c #876665",
"}  c #B8873A",
"|  c #AD953D",
" . c #E08810",
".. c #F0B301",
"X. c #D28D2F",
"o. c #CDB02C",
"O. c #D1B536",
"+. c #E6B826",
"@. c #F7A838",
"#. c #F6C513",
"$. c #9D8E51",
"%. c #A48756",
"&. c #A2875A",
"*. c #B08C5C",
"=. c #8A8278",
"-. c #938578",
";. c #AC946D",
":. c #A89576",
">. c #ABA86A",
",. c #C68E49",
"<. c #D28A41",
"1. c #D1934F",
"2. c #EB9E4A",
"3. c #F49E43",
"4. c #E69E54",
"5. c #CFB04C",
"6. c #ECA045",
"7. c #F1A546",
"8. c #EDA858",
"9. c #EDB25B",
"0. c #FAB756",
"q. c #DE9F63",
"w. c #CFAC6D",
"e. c #D6A767",
"r. c #CCAD7A",
"t. c #D2AB7A",
"y. c #CAB37D",
"u. c #DAB771",
"i. c #E0A76F",
"p. c #F3B869",
"a. c #ECBA71",
"s. c #E4C049",
"d. c #FDC25D",
"f. c #EDCE6F",
"g. c #FAC369",
"h. c #F5C674",
"j. c #F6C877",
"k. c #363D85",
"l. c #363C88",
"z. c #312392",
"x. c #352F92",
"c. c #33249C",
"v. c #351CA4",
"b. c #3427A5",
"n. c #3F4B83",
"m. c #4D568D",
"M. c #745A84",
"N. c #4F4DAF",
"B. c #4953B4",
"V. c #5961AC",
"C. c #767FB2",
"Z. c #3E18C8",
"A. c #3F31D1",
"S. c #4227D6",
"D. c #4432DA",
"F. c #461CE3",
"G. c #462AE4",
"H. c #4045C7",
"J. c #475DC8",
"K. c #4E55DC",
"L. c #5F7BCB",
"P. c #676FDF",
"I. c #6675D7",
"U. c #524BF5",
"Y. c #5249F8",
"T. c #5053F2",
"R. c #575AFC",
"E. c #565BFD",
"W. c #5C6BED",
"Q. c #5966F8",
"!. c #5B64FF",
"~. c #5B6BFC",
"^. c #5C73F2",
"/. c #666CE3",
"(. c #6167F7",
"). c #637BF5",
"_. c #7C8F9E",
"`. c #7A8AB8",
"'. c #6D90D1",
"]. c #6A83FB",
"[. c #7284F3",
"{. c #8E9989",
"}. c #979789",
"|. c #9D9C9A",
" X c #A19D95",
".X c #9FA681",
"XX c #AFAF90",
"oX c #BAB297",
"OX c #8992B2",
"+X c #96A2A5",
"@X c #A7A6A6",
"#X c #CCB18D",
"$X c #D9B185",
"%X c #D7B494",
"&X c #EDB782",
"*X c #BDC484",
"=X c #DAC788",
"-X c #EDC684",
";X c #E9C697",
":X c #D8C5AD",
">X c #CDC4BB",
",X c #D2C5B8",
"<X c #E8CCAF",
"1X c #F1D4A3",
"2X c #EDDAB8",
"3X c #F2E6AF",
"4X c #8F95C2",
"5X c #8CB3E3",
"6X c #A1C6DF",
"7X c #98C3E3",
"8X c #A4C2E1",
"9X c #CCC7C6",
"0X c #D2CCC6",
"qX c #D7D4C8",
"wX c #DBD8D4",
"eX c #DBDCDD",
"rX c #E7D4C4",
"tX c #E6DDD0",
"yX c #F7F1CB",
"uX c #E8E6DC",
"iX c #F0E5D6",
"pX c #DDDDE1",
"aX c #DFE5E5",
"sX c #E4E5E4",
"dX c #E6E9E7",
"fX c #E6E6E9",
/* pixels */
"                              X . O         X             O O             ",
"                          O O O O O O O O         O O O O                 ",
"                          O O   O O   O   O   O O O O O O O O             ",
"                        O X o % = - - = = = = = = % O O O .               ",
"                        X . - d g V V V V V V V C w o O O O               ",
"                        X : 5 z v ` ` ` ` ` ` ` ` u o O O O               ",
"                        # u z z x x l l l l l x Z y o O O O               ",
"                        % u z k k k W Q Q R Q W u 5 . O O                 ",
"                        % r f j h h ! <.X. .X.! 3 . + O O .               ",
"                        o w f h h h / 8.7.@.9.[ 3 + O O O .               ",
"                        . y j a s s } h.j.j.;X:.; O O                     ",
"                        $ y l ] ,.5.9.j.3XyXyXoX;         X               ",
"              X         o 6 h ] 1.g.g.h.3XyXyXoX2 X X X   X               ",
"              X # X # # # = 4 e Q a.g.g.h.-X;X:.; X # # X                 ",
"            X 1 B G G G G G H =.:.;Xa.8.7.8.-X#XH G G 0 X X               ",
"        X X # 0 9XdXdXdXfXfXfXdXtX:Xt.,.<.1.%X0XdXdXeXB # #               ",
"        X # F |.wXdXdXdXsXsXsXsXuXwX:X#X$X%XrXeXaXsXsX@XK 0             X ",
"        X 1 @XdXdXsXdXdXsXsXdXsXdXdXwX9X9X0XuXdXdXdXsXdX0Xw           X # ",
"        X 1 |.dXaXsXdXsXsXsXsXsXdXsXaXpXpXeXsXsXsXsXfXfX9Xw             X ",
"        X 1 |.dXaXsXsXuXeXsXdXsXsXsXsXdXdXsXsXsXsXaXeXsX9Xw             X ",
"        O 1  XuXuXiXiXqX9XeXsXsXsXsXsXsXsXsXsXsXsXwX,XtX9Xw O           @ ",
"  X     . - :.2X1X1X;X:X>XeXdXdXsXsXdXdXdXsXsXsXuX<X%X1X%Xq O           X ",
"  X     . - &.-Xh.p.q.$X>XwXdXsXsXsXsXdXsXdXsXsXiX;Xq.a.r.6 .           o ",
"  X O   . & %.h.d.0.4.$X,XwXsXdXsXsXsXuXuXsXsXsXiX;X4.0.w.6 .           o ",
"      X . & %.h.d.0.6.i.%X<XrXrXrX2X2X3X3XyXrXrX2X&X2.0.e.6             . ",
"      O . & %.g.d.0.6.~ U W ! ! ! Q X.s.f.f./ ! ^ ) 6.0.e.6             . ",
"      O . & %.h.d.0.6.~ t L L L I I ( ..#.+.T I L ( 3.0.w.6             o ",
"    X O . & %.h.d.p.e.^ t P E E U U R +.+.o.Y E E / 8.p.w.6 .           o ",
"    X O . & &.j.g.u.;.[ ' { S M.J J {..X.X}.J M.S _ ! e.r.6 .           o ",
"    X O o & &.-Xh.y.H |.>XOXI./.P.P.I.I.L.I././.I.A 4 *.r.6               ",
"    X X   o r x u.=XoX+X`.I.Q.!.!.!.!.~.~.!.!.!.W.C.-.v f ;               ",
"X X X       . 4 ;.y.#XOXJ.W.!.!.!.E.E.E.E.E.!.!.W.4XoXd . .               ",
"X X X       . = 5 6 q M H.T.!.!.E.G.G.G.F.G.E.~.^.m.q ; . .               ",
"X           X O . + > n S.U.!.!.K.b.c.v.Z.F.E.~.^.k.+ + + .               ",
"            X @ O + < m S.Y.!.~.B.b 9 b v.D.E.!.~.l., O + .         X X   ",
"            + O   + < m S.U.!.~.B.8 * 8 z.D.E.!.(.k., @ . . X       X X X ",
"            + O X + < m S.U.!.~.B.8 + 7 z.D.E.!.(.k., + X X X           O ",
"      X X X + O O + < m S.U.~.~.B.8 + 7 z.D.E.!.(.k., + X X O             ",
"      X X X O   X + < m S.Y.!.(.N.8 + 8 z.D.Q.!.(.k., .   O O             ",
"        O X O . X O < n A.U.E.(.N.8 + 7 z.D.Q.!.Q.l.< O X X O             ",
"              . O + , M J.^.].[.V.7 O 7 x.K.).].[.n., > @ X O             ",
"              . O O # N '.5X7X6X_.1 . < m.'.5X8X8XD % * o . O             ",
"              . O + o B {.XX*X*X>.v r - F {.XX*X*X$.c 5 $ + X             ",
"            O   O > $ f | o.O.o.O.5.c 3 v | o.o.O.O.5.p * O X             ",
"            O X O + $ 5 e e i i i i 5 $ 6 e i i p p p 4 + O X             ",
"            O X X O + . $ $ $ $ % o o + . o o o . . o o O X               ",
"                    O O . . . . O X O X   O + @ X X X     O O             ",
"            X O       O   X X X @ @ O O O + > + O O O O   O O             "
};
