/* XPM */
static const char *wall[] = {
/* columns rows colors chars-per-pixel */
"48 48 110 2 ",
"   c #4F4D3E",
".  c #514E3F",
"X  c #4F4D47",
"o  c #4F4D48",
"O  c #534E41",
"+  c #545042",
"@  c #595245",
"#  c #5C5648",
"$  c #5E594A",
"%  c #5E5B52",
"&  c #625D4E",
"*  c #625D52",
"=  c #6A5F51",
"-  c #66624F",
";  c #6B634F",
":  c #676152",
">  c #6B6452",
",  c #6F6A57",
"<  c #6D675B",
"1  c #6D685B",
"2  c #726757",
"3  c #716956",
"4  c #726759",
"5  c #736D5B",
"6  c #786F5B",
"7  c #767059",
"8  c #7A725E",
"9  c #756E61",
"0  c #777063",
"q  c #7A7462",
"w  c #7D7963",
"e  c #847C6B",
"r  c #877E70",
"t  c #887D72",
"y  c #86826E",
"u  c #8A816E",
"i  c #878271",
"p  c #8C8573",
"a  c #8E8974",
"s  c #8F8979",
"d  c #908773",
"f  c #938A75",
"g  c #968E7B",
"h  c #96917D",
"j  c #99917D",
"k  c #979181",
"l  c #9D9682",
"z  c #9E9B83",
"x  c #9E9788",
"c  c #9F998B",
"v  c #A09784",
"b  c #A39C85",
"n  c #A89E86",
"m  c #A39D8A",
"M  c #A99F89",
"N  c #A59E90",
"B  c #A4A08A",
"V  c #A5A08C",
"C  c #A5A08F",
"Z  c #AAA38D",
"A  c #ACA68F",
"S  c #A5A090",
"D  c #A7A292",
"F  c #ADA691",
"G  c #AEAB94",
"H  c #AFAD98",
"J  c #B0AA91",
"K  c #B1AA95",
"L  c #B3AD96",
"P  c #B3AD99",
"I  c #B2AE99",
"U  c #B3B099",
"Y  c #B6B299",
"T  c #B4B19A",
"R  c #B7B09A",
"E  c #B5B29B",
"W  c #B8B59E",
"Q  c #BBB49E",
"!  c #B5B3A7",
"~  c #B4B4A7",
"^  c #BAB6A0",
"/  c #BAB7A0",
"(  c #BCB5A3",
")  c #BDBAA4",
"_  c #B5B3A8",
"`  c #BEBAA8",
"'  c #BFBCA8",
"]  c #C3BCA6",
"[  c #C1BEA7",
"{  c #C5BDA7",
"}  c #C3BFA9",
"|  c #C2BDAB",
" . c #C5BDA8",
".. c #C4BFAA",
"X. c #C3BEAC",
"o. c #C4BFAD",
"O. c #C8BFA8",
"+. c #C2C0A7",
"@. c #C3C0A8",
"#. c #C4C0AA",
"$. c #C3C0AC",
"%. c #C6C1AD",
"&. c #C7C2AC",
"*. c #C7C3AC",
"=. c #CAC3AC",
"-. c #C9C4AE",
";. c #C6C3B3",
":. c #C6C4B1",
">. c #C9C5B0",
",. c #CBC4B0",
/* pixels */
"X o X X X X X X X X X X X X X X X X X X X X X X X X X X X X X X o X X X X X X X X X X X X X X X ",
"_ _ _ _ _ ! ! ! _ _ _ _ ! ! _ _ _ _ ! ! _ ~ _ _ ! ! _ _ ! _ _ ! _ _ _ _ _ _ _ _ ! ! _ ! ~ ~ ~ ~ ",
";.;.;.;.;.;.;.;.;.;.;.;.;.;.;.;.;.;.;.;.;.;.;.;.;.;.;.;.;.;.;.;.;.;.;.;.;.;.;.;.;.;.;.;.:.:.:.:.",
";.;.;.;.;.;.;.;.;.;.;.;.;.;.;.;.;.;.;.;.;.;.;.;.;.;.;.;.;.;.;.;.;.;.;.;.;.;.;.;.;.;.;.%.%.%.%.%.",
"m m c c m m m m m m m m m m m m m m m m m m m m m m m m m m m m m m m m m m m m m m m m m m c c ",
"1 1 1 1 1 5 5 5 5 5 5 5 5 5 5 5 5 5 5 5 5 5 , 1 5 1 1 1 5 1 5 5 1 5 5 5 5 5 5 5 5 5 5 5 5 , , , ",
"O + + + + + + + + + O O O O O O O O O . . . O O + + + O O O + O O O O O O O O O O + O . . O O O ",
"O O O O O O . . O O O O @ @ O @ O . . . . . .   . .       O       O @ @ @ O O . O O . . . . . . ",
"& & & & & * * & & * * $ @ @ @ @ $ $ $ $ & - & & & & * & & * & & & # @ @ @ @ $ $ $ $ & & & & & & ",
"C C C C m S S m S S S i < * * > e a a p h B C C S C S C S S m S m q > * * 1 i s p a z C C C C C ",
"X.X.X.X.X.X.X.} X.%.o.x q > > 5 g m m b I } } } X.X.X.X.X.X.X.;.` p < > > q x m z m / %.%.X.X.X.",
"%.%.%.%.%.%.%.%.%.#.%.x q > > 5 g b b b T %.%.%.%.%.%.%.%.%.%.>.} a > > > q x C b B / -.%.%.%.%.",
"} } } } } #.} } } } ..x q > > 6 g b z z L #.#.} } } } @.} #.} %.[ a > > > 8 l b b B W #.#.} { ..",
"T T T T T T U / @.} #.x q > > 6 h b b b A T T U U U U U W [ @.%.[ p > > ; 8 l m b b G T T T T I ",
"b z z z z z z G +.+.} x q ; ; 6 h b b b b b b b b b b z Z / #.%.[ p ; > ; 8 z B b b b b b b b b ",
"z z z z z z z G @.#.#.z q ; ; 6 j b b b b b z z z z z z Z ) %.-.[ a ; > ; 8 j b b b b b b b b b ",
"b b b b b b b K ..#.%.b q ; > 6 j m b b b b b b b b b b F ) #.-.[ p > ; ; 8 l b b b b b m m m m ",
"j j j j j j j b I I T g 8 > > 6 d j j j j j j j j j j j b G I T L e 3 > > 8 d j j j g g g g g j ",
"6 6 6 7 8 6 6 8 q q q 5 > > > > 6 5 5 5 6 6 6 7 6 6 6 6 8 w q w w 5 > > > > 5 5 8 5 > & & : 5 5 ",
"> ; ; ; ; ; ; ; ; ; ; > > > > > > > > > > > > ; ; ; ; ; ; > ; ; ; > > > > > > > > > # . . + & > ",
"> > > > ; > > ; ; ; > > > > > > ; > > > > > > > > > > > ; > > ; > > > > > > > > > > # @ @ @ & > ",
"> > > 3 6 6 6 8 8 q q q q q q q q q q q 5 > > > > 6 6 6 6 8 8 8 q q q q q q q q q 9 * @ @ # > 6 ",
"> > 3 e d p d j m m m m m m z m m m m m y > > > 3 u p p f z b b m m N N m m m c m b 0 & * > w p ",
"; ; 3 d b b b J { ......@.} } } } } %.%.h : > > 7 j b b Z / } [ } X.X.} X.X.X.X.o.( i > > 5 p l ",
"> ; 3 f m b b K -.>.#.%.%.%.-.%.$.@.-.%.h > > > 6 j m b F [ -.#.#.%.%.%.%.%.$.$.;.) p > > 5 a z ",
"> ; 3 f m b b J ..-...%.$.%.%.%.%.$.-.%.h - ; ; 6 j m b F / #.#.#.#.$.%.%.%.$.%.:.) y - - , a z ",
"> ; 3 d b b b Z L I K H I L H T ) } -.%.h - > > 6 j b b C G L L L H H H H T @.@.%./ y > > 3 a b ",
"> ; 3 f m b b b m b b z b z z C ) } %.@.h > > ; 6 j m b b b b z z z b b z F ) #.#./ y > > 3 d v ",
"> > 5 f m m b b b b b z z z z B / } %.%.h - ; ; 6 j b b b b b b b b b b b F { o.-.( r > > 5 d b ",
"> > 5 d m m m m m m m b b m m Z ) %.>.%.k : > > 8 l m m m m b b m m m b b F ..o.>.( t > > 5 d v ",
"> > 5 u g g g g g g g h g h h k F I I I p : & ; 3 d j j g g g g g g j g g v F I I S e > > 4 e d ",
"> > > 5 5 5 5 5 5 5 5 5 5 5 5 5 5 5 9 9 > @ @ @ # > 5 5 5 5 5 5 5 5 5 6 5 5 5 5 5 q 5 > > > 2 5 ",
"> > > > > > > > > > > > > : : : : : : > & @ @ O @ * : > > > > > > > > > > > > > & > > > > > > > ",
"> > > > > > > > > > > > < > > < > > > > $ O O O @ * > > > > > > > > > > > > > > > > > > > > > > ",
"q q q q q q q q q q q 5 < > < < 5 5 5 5 1 * : > < 9 q q q q q q q 5 > > > > 6 6 5 6 8 q q q q q ",
"m m m m m c m m c m m i 5 > > 1 e a p p f k k k l m m m c m m m c e > > > 5 u d p d l b b m m m ",
"%.$.$.$.$.$.%.$.@.$.%.z q > > 5 h m b b T #.%.o.%.;.%.%.X.%.%.;.X.p < > > q v M b M / -...o.%.#.",
"#.@.$.@.@.$.$.} ' } } k q > > 5 h B B B T -.#.@.$.$.} $.$.$.} $.` p < > * q x m b m W %...o.o...",
"..} } } } } } } } } @.z q > > 5 h b b z L #.#.} } } } } } %.} %.} a < > > q l m b C W #.{ ..[ [ ",
"J J K K K G F T } } #.l 8 > > 6 j b b b Z K K K K K K G I [ ....[ p > > > q l m b b A K J J J G ",
"b m m m m b b K [ } #.l 8 ; > 6 j m b b b m b b m m b b A [ ..O.[ p > > > q l m b b b b b b b b ",
"b b b b b b b L #.#.#.b 8 ; > 5 g b b b b b b b b b b b A [ { O.[ d 2 ; ; 8 l m b b b b b b b b ",
"M M M M M b m L %.-.-.b 8 ; ; 7 j M m b m C M M M M M b J { =.=.O.d > ; > q v M M M M b n n b b ",
"f f f f f d d j Z Z Z d 6 ; ; 3 u d f d d d d f f f d d j m Z A C e > > ; 6 p d f f d d d f d d ",
"2 2 2 2 2 3 3 5 6 5 5 3 > > > > 3 3 3 3 3 3 3 3 3 3 3 3 5 6 6 6 6 2 > > > > 3 3 3 3 3 3 3 3 3 3 ",
"> = > > > > > > > : > > > > > > > > > > > > > > > > > > > > > > > > > > > > > > > > > > > > > > ",
"< < < < < < 1 1 1 1 1 1 1 1 < 1 < < 1 1 1 1 < < < < < < < < < < < < < < < < < < < 1 1 1 1 < 1 1 ",
"* * * * * * % % % % % % % % % % % % % % % % % * * * * * * * * * * % % % % % % * * % * * * * * * "
};
